<svg xmlns="http://www.w3.org/2000/svg" width="1440" height="900" viewBox="0 0 1440 900">
  <defs>
    <radialGradient id="glow" cx="50%" cy="38%" r="62%">
      <stop offset="0" stop-color="#fffdf8"/>
      <stop offset="1" stop-color="#e9e4da"/>
    </radialGradient>
    <filter id="shadow" x="-30%" y="-30%" width="160%" height="180%">
      <feDropShadow dx="0" dy="18" stdDeviation="20" flood-color="#34302b" flood-opacity=".18"/>
    </filter>
  </defs>
  <rect width="1440" height="900" fill="url(#glow)"/>
  <g transform="translate(720 378)" filter="url(#shadow)">
    <path d="M-82 14c0-71 25-121 82-121s82 50 82 121c0 67-27 105-82 105S-82 81-82 14Z" fill="#f7f3ea"/>
    <path d="M-73-52-53-91l25 28M73-52 53-91 28-63" fill="#f7f3ea" stroke="#dbd4c8" stroke-width="5" stroke-linejoin="round"/>
    <ellipse cx="-27" cy="-2" rx="8" ry="14" fill="#282623"/>
    <ellipse cx="27" cy="-2" rx="8" ry="14" fill="#282623"/>
    <path d="M-101 31c21 60 77 82 125 64 26-10 47-32 57-62-41 26-88 31-134 14-18-7-34-16-48-28Z" fill="#2d2b28"/>
  </g>
  <text x="720" y="556" text-anchor="middle" fill="#2b2926" font-family="system-ui, sans-serif" font-size="32" font-weight="600">Wiii Web Computer</text>
  <text x="720" y="594" text-anchor="middle" fill="#77716a" font-family="system-ui, sans-serif" font-size="16">A durable workspace for people and agents</text>
</svg>
